<svg width="68" height="124" viewBox="0 0 68 124" fill="none" xmlns="http://www.w3.org/2000/svg">
<path fill-rule="evenodd" clip-rule="evenodd" d="M52.7102 100.126C48.6371 108.278 43.6442 115.835 38.3675 123.189C37.7644 123.034 38.2942 122.659 38.0792 122.422C37.7375 122.264 37.357 123.087 36.9174 122.355C36.5133 121.682 36.7528 121.176 37.0374 120.654C38.5353 117.905 40.6987 115.584 42.0042 112.686C42.451 111.695 42.6462 110.481 43.748 109.709C44.4264 109.234 44.2665 108.033 44.8659 107.242C45.2411 106.746 45.4497 106.053 45.8671 105.494C47.5305 103.267 48.489 100.749 48.7623 97.9819C48.8114 97.4835 49.0191 97.0323 49.4813 97.017C50.7413 96.9747 51.9928 96.4526 53.2279 97.5552C54.1244 98.3559 54.2077 99.0809 53.9541 100.046C53.3426 102.372 52.1297 104.424 50.9393 106.475C49.5469 108.873 47.9656 111.158 46.4907 113.504C44.5069 116.658 42.286 119.637 40.1794 122.699C39.9789 122.99 39.7869 123.592 39.3473 123.327C39.0164 123.128 39.365 122.651 39.5538 122.362C40.7446 120.534 42.0195 118.768 43.3254 117.018C44.5769 115.341 45.626 113.503 46.671 111.683C48.3597 108.74 50.2204 105.896 51.7485 102.861C52.184 101.996 52.6152 101.12 52.7102 100.126Z" fill="#FFD66D"/>
<path fill-rule="evenodd" clip-rule="evenodd" d="M59.1486 64.9461C59.9139 64.331 60.4674 65.2882 60.7093 65.4827C61.3639 66.0084 62.39 65.4662 62.6456 66.0885C63.0325 67.0309 63.867 67.8284 63.5208 69.0908C62.8517 71.5327 61.8377 73.8313 60.8949 76.1625C60.2114 77.8524 59.56 79.5589 58.5617 81.1039C58.1164 81.7927 57.6048 82.4001 56.8492 82.7463C56.0743 83.1018 55.3939 83.1272 54.6476 82.4883C54.0953 82.0157 53.3832 81.7053 52.8719 81.1498C52.3852 80.6216 51.9988 80.0689 52.5728 79.3492C52.9758 78.8444 52.9029 78.1825 53.1058 77.6069C53.9214 75.2938 54.2318 72.8028 55.5401 70.664C56.5102 69.0775 57.2272 67.3703 57.9751 65.6763C58.1893 65.1912 58.3966 64.6051 59.1486 64.9461Z" fill="#FFD66D"/>
<path fill-rule="evenodd" clip-rule="evenodd" d="M10.9016 82.2695C11.0815 81.8638 11.1975 81.6029 11.3094 81.3509C11.1765 81.1774 11.0538 81.2809 10.9217 81.3179C10.6508 81.3944 10.5578 81.9133 10.2297 81.706C9.83279 81.4552 10.3432 81.1549 10.3126 80.8578C9.87828 80.7567 9.76275 81.2933 9.4085 81.3082C8.85941 80.4637 9.14764 79.7837 9.65889 79.0261C11.0481 76.9674 12.2522 74.8037 13.0629 72.4359C13.3689 71.5418 14.5141 71.105 14.5363 70.0672C14.5645 68.7509 15.1788 67.608 15.8691 66.6668C17.0615 65.0413 17.3163 63.1287 18.026 61.3619C18.2257 60.8648 17.952 60.2525 18.4431 59.8451C18.6017 59.7134 18.8509 59.4135 18.9543 59.6663C19.3094 60.5302 20.0014 60.114 20.5742 60.2573C21.6374 60.5234 21.8467 61.566 21.9506 62.483C22.114 63.9282 21.697 65.3259 21.1104 66.6141C18.8658 71.5466 16.2552 76.2787 13.0255 80.6436C12.5336 81.3086 12.0923 82.1431 10.9016 82.2695Z" fill="#FFD66D"/>
<path fill-rule="evenodd" clip-rule="evenodd" d="M25.7734 101.855C26.0197 101.088 26.2576 100.284 26.5346 99.4939C28.2885 94.4845 30.5638 89.7097 33.0282 85.0175C33.973 83.2189 35.062 81.4927 35.7769 79.5734C35.9814 79.0235 36.3489 78.5895 37.0047 79.1744C37.1593 79.3125 37.3887 79.3749 37.5932 79.4474C38.9535 79.9288 39.4849 80.9714 39.0582 82.3864C38.621 83.838 37.8122 85.1093 37.0285 86.3838C33.7122 91.7745 30.5928 97.2665 28.2116 103.149C27.9097 103.894 27.8224 103.893 27.293 103.326C27.2354 103.264 27.1187 103.22 27.035 103.227C26.0475 103.315 25.9577 102.592 25.7734 101.855Z" fill="#FFD66D"/>
<path fill-rule="evenodd" clip-rule="evenodd" d="M59.0271 45.593C59.9312 43.3681 61.4094 41.6653 62.2709 39.6505C63.1416 37.6139 64.1959 35.6507 64.7426 33.4768C63.95 35.2195 63.1618 36.9646 62.3639 38.7053C61.4477 40.7023 60.2859 42.5577 59.1438 44.4304C58.5706 45.37 57.9269 45.3221 57.2816 44.8048C56.6516 44.2992 56.5208 43.4478 57.1141 42.8544C58.323 41.6455 59.0029 40.1009 59.4445 38.5837C60.2134 35.9413 61.5652 33.4921 61.9726 30.7326C62.0664 30.0966 62.5265 29.5543 62.6211 28.8458C62.7274 28.0488 62.7689 27.366 62.3736 26.6233C62.1445 26.1918 61.5793 25.6242 62.0813 25.1427C62.4919 24.7486 63.0933 24.4596 63.7777 24.8186C64.0389 24.9555 64.4198 24.8657 64.7462 24.877C66.6552 24.9414 67.7819 26.1853 67.4973 28.1108C67.1157 30.6928 66.1459 33.1077 65.1218 35.4925C63.7801 38.6175 62.3212 41.6822 60.3354 44.4655C60.0423 44.8761 59.7968 45.3297 59.0271 45.593Z" fill="#FFD66D"/>
<path fill-rule="evenodd" clip-rule="evenodd" d="M6.97931 21.2431C9.56453 21.2483 10.3435 22.3803 9.46872 24.5239C8.78478 26.2002 7.62139 27.5817 6.49825 28.9657C3.8764 32.1958 1.14746 35.3334 -1.7578 38.3183C-2.46831 39.0486 -3.33099 39.3098 -4.21662 39.5808C-4.52578 39.675 -5.21496 39.8609 -5.18879 39.5916C-5.13404 39.0409 -5.68676 38.5406 -5.1892 37.9512C-2.96708 35.3197 -0.984081 32.5026 1.07057 29.7411C1.97632 28.5233 2.97869 27.3752 3.85103 26.1349C4.44078 25.296 5.04381 24.3895 4.44561 23.2599C4.37396 23.125 4.41099 22.7712 4.4746 22.7502C5.49548 22.4097 6.1126 21.3224 6.97931 21.2431Z" fill="#FFD66D"/>
<path fill-rule="evenodd" clip-rule="evenodd" d="M24.9887 42.7304C24.4332 43.2545 23.806 43.7223 23.341 44.3168C22.7984 45.0104 22.1942 45.1626 21.4297 44.8603C20.9752 44.6799 21.0718 44.2033 21.1157 43.8994C21.2288 43.1172 21.6918 42.5146 22.4478 42.236C22.6285 42.1696 22.9006 42.3065 22.9002 41.9796C22.8962 40.3826 24.2967 39.5324 24.8985 38.2531C25.0833 37.861 25.4275 37.4887 25.6698 37.0865C26.3775 35.9122 26.9564 34.6365 28.4563 34.1869C28.8058 34.0822 29.3597 33.7694 29.1709 33.2385C28.5948 31.619 29.7292 30.5373 30.3729 29.3365C31.4308 27.3635 32.773 25.5512 33.754 23.53C33.8647 23.3021 33.9331 22.9781 34.2512 23.057C34.6485 23.156 34.1219 23.5086 34.3977 23.7164C34.8928 23.4527 35.3276 22.7406 36.018 23.5807C36.2643 23.8806 36.6262 23.3738 36.8034 23.0554C36.9382 22.8134 37.0864 22.5856 37.3903 22.7635C37.7578 22.9789 37.441 23.2039 37.344 23.4016C35.576 27.0049 33.3921 30.3557 31.1257 33.6567C29.1298 36.564 27.1343 39.4717 25.1389 42.3781C25.0894 42.4949 25.039 42.6124 24.9887 42.7304Z" fill="#FFD66D"/>
<path fill-rule="evenodd" clip-rule="evenodd" d="M5.66368 55.5205C4.43991 57.4141 3.20688 59.3053 1.84503 61.1104C3.39849 59.9454 5.27119 57.2418 5.66368 55.5205ZM3.26903 52.6458C3.64985 52.5347 2.67888 53.8583 3.71668 53.0455C3.74445 53.0238 3.7992 52.9904 3.81168 53C4.49563 53.531 5.09785 53.5012 5.72383 52.8523C5.88807 52.682 7.16257 54.1103 7.18994 54.5321C7.231 55.169 7.06998 55.772 6.7898 56.3296C5.20855 59.4784 2.98402 62.0946 0.173367 64.2116C-1.20338 65.249 -2.64776 65.1359 -4.08931 64.3634C-4.86343 63.9484 -4.85981 63.4496 -4.21612 62.8285C-3.53862 62.1751 -2.89412 61.4823 -2.28747 60.7625C-1.58742 59.9321 -1.0013 59.0203 -0.230801 58.23C0.781229 57.1926 1.12984 55.7213 1.86572 54.4895C2.2727 53.8096 2.63098 53.1196 3.26903 52.6458Z" fill="#FFD66D"/>
<path fill-rule="evenodd" clip-rule="evenodd" d="M54.605 2.66462C54.6187 1.84259 53.9251 1.44326 53.8293 0.787088C54.8429 0.648609 55.4818 1.1985 55.7036 2.33009C55.9443 3.5595 55.5599 4.69189 54.9617 5.67212C53.6888 7.75737 52.6264 9.96298 50.8483 11.764C50.1527 12.4685 49.6717 13.6085 48.995 14.4608C47.0663 16.8914 45.0531 19.2552 43.0645 21.6379C42.6652 22.1166 42.1913 22.5187 41.6447 22.8307C41.3649 22.9905 41.0891 23.0268 40.8287 22.8174C40.5489 22.5924 40.5799 22.305 40.7361 22.0276C40.9684 21.615 41.1769 21.1794 41.4671 20.8103C44.1542 17.3962 46.9142 14.0373 49.5255 10.5668C50.5428 9.21463 51.337 7.66076 51.8845 6.03764C52.1373 5.28768 51.8664 4.46485 51.7807 3.67624C51.7577 3.46128 51.4578 3.16902 51.8378 3.008C52.5677 2.69803 53.1792 2.39168 52.5371 1.44084C52.3909 1.22467 52.7231 1.11034 52.9541 1.10511C53.3671 1.09545 53.8426 1.10189 53.8913 1.61515C53.9356 2.08614 54.2025 2.32566 54.605 2.66462Z" fill="#FFD66D"/>
<path fill-rule="evenodd" clip-rule="evenodd" d="M37.1068 58.7324C37.3436 58.9003 37.4764 58.9325 37.5799 58.6809C37.9566 57.7643 38.2706 56.809 38.7626 55.9576C39.0601 55.4431 38.9961 54.382 40.1353 54.6916C40.3164 54.7407 40.2794 54.5124 40.1973 54.3832C40.0053 54.0813 40.1244 53.8599 40.3325 53.6059C40.6876 53.1731 40.7854 52.6929 40.6932 52.0995C40.5221 51.0037 41.2846 50.4696 42.287 50.9192C42.4073 50.9736 42.6211 51.1563 42.6319 51.0806C42.888 49.2949 43.8557 51.6627 44.2506 50.7976C44.5469 51.044 44.6862 51.3576 44.72 51.7449C44.7973 52.6325 44.4342 53.3833 44.0224 54.1203C42.4621 56.9129 40.2271 59.1418 37.9349 61.3112C37.383 61.8341 36.5513 61.8623 35.836 62.0729C35.4161 62.1964 35.1685 61.8486 35.0095 61.5161C34.7917 61.0604 35.0317 61.0129 35.4044 61.1345C35.4539 60.3169 35.9885 59.7509 36.4273 59.1302C36.6206 58.8568 36.7458 58.5263 37.1068 58.7324Z" fill="#FFD66D"/>
<path fill-rule="evenodd" clip-rule="evenodd" d="M4.47821 103.621C4.56838 103.688 4.65815 103.755 4.74792 103.821C5.26561 103.001 5.78813 102.185 6.29334 101.357C6.35211 101.26 6.46724 101.086 6.29253 100.981C6.17096 100.907 5.96243 100.886 5.92097 101.04C5.6581 102.02 4.73826 102.644 4.47821 103.621ZM8.29251 93.6674C8.61254 93.2048 8.38429 92.4142 9.3927 92.3506C10.1217 92.3043 9.99009 92.6566 9.9905 93.0317C10.6173 92.9754 10.3665 92.2307 10.9216 92.0829C11.1503 93.0905 10.7787 94.055 10.8238 95.0232C10.8169 95.0518 10.8125 95.0832 10.8097 95.117C10.0312 95.7852 9.85161 96.7852 9.42007 97.6442C9.24214 97.9993 9.17974 98.4228 8.96116 98.7444C7.20198 101.332 5.77049 104.127 3.87565 106.635C2.39062 108.6 1.07546 110.692 -0.510614 112.586C-0.875331 113.021 -1.19778 113.498 -1.98035 113.954C-1.37652 112.861 -0.916795 112.029 -0.457478 111.197C-0.468749 111.23 -0.478812 111.264 -0.487669 111.299C0.722821 110.341 1.21595 108.861 2.25254 107.756C1.89829 107.456 1.79201 107.769 1.62173 107.804C1.33028 107.864 1.15034 107.682 1.03762 107.431C0.982068 107.308 0.871365 107.127 1.06741 107.077C1.93693 106.853 1.72841 106.132 1.75377 105.56C1.78195 104.927 2.12573 104.58 2.62007 104.297C3.38171 103.862 3.83459 103.245 3.75287 102.324C3.88652 102.126 4.01977 101.928 4.15341 101.73C4.9859 101.322 6.17667 99.3338 6.09213 98.4936C6.56715 98.4691 6.75474 97.569 7.40125 98.0625C7.59286 98.5947 7.70155 98.8467 8.19912 98.1841C8.82791 97.3476 8.72687 96.2083 9.48529 95.4608C9.598 95.3501 9.59035 95.1866 9.43577 95.092C9.2349 94.9689 9.04851 95.059 9.01792 95.2563C8.88427 96.1089 8.20354 96.7083 7.99743 97.5195C7.91008 97.8616 7.81789 98.1611 7.37065 98.0935C7.09893 96.5135 8.31545 95.4342 8.7325 94.0852C8.78765 93.9065 9.45791 94.388 9.21477 93.7865C9.09642 93.4931 8.64998 93.3474 8.29251 93.6674Z" fill="#FFD66D"/>
<path fill-rule="evenodd" clip-rule="evenodd" d="M24.9893 42.7304C25.0396 42.6124 25.0899 42.4949 25.1394 42.3782C26.5915 41.0984 27.7629 39.5554 28.8997 38.0197C30.4637 35.907 31.8778 33.6757 33.2397 31.4246C34.3922 29.5193 35.8624 27.8072 36.6707 25.6849C36.9988 24.8234 37.543 24.0372 38.4931 23.4491C38.7169 24.7461 37.8908 25.577 37.4146 26.4912C36.1602 28.9005 34.5758 31.1082 33.0175 33.3238C30.206 37.3208 27.5648 41.4535 24.061 44.9175C23.8605 45.1155 23.7003 45.3881 23.218 45.2407C23.5328 44.1917 24.5392 43.641 24.9893 42.7304Z" fill="#FFD66D"/>
<path fill-rule="evenodd" clip-rule="evenodd" d="M5.00878 106.431C5.12955 105.088 6.27804 104.347 6.90241 103.301C7.36495 102.526 7.74215 101.647 8.48124 101.032C8.66521 100.879 8.73888 100.542 9.04241 100.713C9.28394 100.849 9.33305 101.124 9.17002 101.383C8.18818 102.94 7.23331 104.515 6.06026 105.941C5.7833 106.277 5.34653 106.268 4.97738 106.405L5.00878 106.431Z" fill="#FFD66D"/>
<path fill-rule="evenodd" clip-rule="evenodd" d="M4.97912 106.405C5.11639 106.702 5.2758 106.979 5.02622 107.318C3.61203 109.243 2.22724 111.19 0.588022 112.937C0.461217 113.072 0.391172 113.392 0.104551 113.192C-0.0770025 113.065 -0.0319161 112.868 0.092474 112.71C1.69505 110.684 3.25013 108.624 4.70578 106.488C4.74684 106.428 4.90625 106.449 5.01052 106.431L4.97912 106.405Z" fill="#FFD66D"/>
<path fill-rule="evenodd" clip-rule="evenodd" d="M10.8096 95.1171C10.812 95.0833 10.8168 95.0515 10.8233 95.0229C11.0169 94.533 11.4396 94.1365 11.4033 93.5512C11.3905 93.3427 11.3627 93.0464 11.6803 93.0738C11.9641 93.0983 11.9259 93.362 11.9009 93.5866C11.6783 95.5837 10.9996 97.4512 10.2432 99.2904C10.1132 99.6061 9.73274 99.945 9.38533 99.7832C8.97392 99.5916 9.28469 99.185 9.43042 98.9467C10.1554 97.7611 10.4714 96.4371 10.8096 95.1171Z" fill="#FFD66D"/>
<path fill-rule="evenodd" clip-rule="evenodd" d="M-0.487953 111.299C-0.479096 111.264 -0.469032 111.231 -0.457358 111.198C-0.920299 111.668 -1.72582 111.807 -1.80391 112.675C-1.81679 112.819 -2.18151 113.343 -2.55025 113.02C-2.90088 112.712 -2.5265 112.388 -2.32361 112.196C-1.40659 111.328 -0.678765 110.347 -0.262118 109.029C0.0901198 109.441 0.616262 109.709 -0.0841876 110.209C-0.460579 110.477 -0.310022 110.951 -0.487953 111.299Z" fill="#FFD66D"/>
<path fill-rule="evenodd" clip-rule="evenodd" d="M4.15282 101.73C4.01918 101.928 3.88553 102.126 3.75228 102.323C3.59166 102.45 3.43104 102.576 3.27082 102.702C3.21406 102.663 3.15811 102.624 3.10175 102.585C3.47089 101.926 3.84044 101.267 4.20959 100.608C4.28849 100.634 4.36739 100.66 4.44629 100.687C4.34847 101.034 4.25065 101.382 4.15282 101.73Z" fill="#FFD66D"/>
<path fill-rule="evenodd" clip-rule="evenodd" d="M7.86451 94.2359C8.07947 94.9923 7.52837 95.4943 7.23934 96.0776C6.95593 96.6497 6.62584 97.1987 6.31587 97.7583C6.20637 97.4737 6.23214 97.2217 6.39074 96.9431C6.89917 96.0502 7.3758 95.1397 7.86451 94.2359Z" fill="#FFD66D"/>
</svg>
