<svg width="71" height="181" viewBox="0 0 71 181" fill="none" xmlns="http://www.w3.org/2000/svg">
<path fill-rule="evenodd" clip-rule="evenodd" d="M4.7304 57.3475C4.65173 57.053 4.50142 56.8943 4.22409 56.9479C3.74678 57.0398 3.47956 57.3334 3.45231 57.8265C3.43736 58.0968 3.59647 58.1491 3.8215 58.1091C4.28386 58.0269 4.49834 57.6661 4.7304 57.3475ZM2.28595 144.175C2.75754 142.849 3.063 141.48 3.45944 140.136C2.68239 141.368 2.26178 142.707 2.28595 144.175ZM5.7813 54.5975C7.74855 52.4764 9.80151 50.4392 11.8865 48.4338C9.35277 49.998 7.39562 52.1287 5.7813 54.5975ZM44.5528 33.6046C48.6143 31.7675 51.9924 29.0153 55.2166 26.0494C51.8531 28.5766 48.4939 31.1065 44.9031 33.3102C44.7747 33.3893 44.6692 33.5058 44.5528 33.6046ZM91.0037 135.677C89.8231 139.71 87.4797 143.131 86.3 147.046C87.7838 145.999 91.615 136.991 91.0037 135.677ZM43.3645 175.775C44.1565 175.775 44.9559 175.843 45.7396 175.762C48.9507 175.432 52.1195 174.823 55.288 174.223C59.989 173.333 64.3252 171.336 68.7739 169.696C70.8265 168.94 72.7898 167.908 74.1804 166.087C78.7759 160.07 82.4757 153.592 85.1022 146.442C87.1987 140.736 89.9263 135.264 92.1669 129.607C93.7668 125.569 94.7878 121.337 95.2453 116.995C95.6263 113.378 95.4123 109.751 95.4382 106.126C95.4593 103.145 95.4066 100.167 95.5943 97.1761C95.7261 95.07 95.2536 92.8759 95.073 90.7184C94.7543 86.9192 94.8119 83.1671 95.9665 79.4818C97.0319 76.0817 98.4761 72.8443 100.269 69.7857C103.899 63.593 108.45 58.0763 113.223 52.7498C115.786 49.8895 118.301 47.001 120.42 43.7948C124.321 37.8952 126.193 31.3795 126.031 24.3244C125.905 18.809 123.489 14.5268 118.731 11.6173C110.46 6.56026 101.728 4.94198 92.3542 8.02164C85.0943 10.4069 78.6304 14.1968 72.7172 19.0103C69.0293 22.0126 65.6622 25.3736 61.9844 28.3846C56.9753 32.4866 51.8862 36.4664 45.9866 39.2555C41.421 41.4144 36.6219 42.9329 31.7952 44.3604C27.6748 45.5792 23.7456 47.2243 20.0334 49.3836C15.7491 51.8757 12.131 55.0639 9.6267 59.4076C9.32915 59.9249 9.31772 59.9183 8.63999 59.9323C8.4343 59.9367 8.42156 60.1077 8.35255 60.2448C7.72581 61.4952 7.31662 62.7997 7.29992 64.2136C7.2885 65.1687 7.65725 66.5347 7.33025 66.9944C6.28026 68.4694 7.07094 69.8983 7.26432 71.1412C7.50474 72.683 7.90865 74.2828 8.38112 75.8277C9.56648 79.706 10.9285 83.5148 12.8602 87.0774C14.6314 90.3456 16.3473 93.6429 16.8584 97.3444C17.0061 98.4173 18.2991 99.6422 16.9191 100.788C16.9186 100.788 17.0158 100.895 17.0571 100.959C17.7897 102.088 18.1598 103.363 18.2156 104.672C18.2697 105.923 18.7167 107.092 18.7703 108.328C18.8569 110.324 19.597 112.263 19.1694 114.313C18.9751 115.245 19.0204 116.235 19.0186 117.198C19.0147 119.344 18.2877 121.388 18.1752 123.538C18.133 124.344 17.4293 125.368 17.0417 126.29C15.652 129.597 13.1867 132.116 11.0239 134.875C8.98897 137.471 6.70263 140.015 6.48858 143.573C6.40244 145.009 5.97524 146.524 6.71581 147.871C8.70812 151.491 9.75591 155.595 12.4892 158.841C14.6165 161.367 16.0449 164.428 18.6367 166.623C21.1713 168.769 23.5913 171.08 26.5193 172.666C27.9565 173.445 29.4139 174.241 31.1012 174.614C35.1553 175.508 39.2335 175.832 43.3645 175.775ZM76.9185 8.70075C77.1422 8.63307 77.3844 8.59922 77.587 8.49154C82.648 5.79997 87.9226 3.66834 93.5167 2.35948C93.7188 2.31201 93.9962 2.31904 94.1162 2.00831C93.7377 2.06237 93.3822 2.10456 93.0297 2.16565C88.3849 2.97348 84.0795 4.74603 79.8975 6.84513C78.8568 7.36771 77.7176 7.77338 76.9396 8.72536C75.6927 8.81239 74.9315 9.86458 73.8525 10.2975C73.6635 10.3731 73.4596 10.7168 73.7479 11.0086C73.8437 11.1053 73.976 11.1677 74.0353 11.0539C74.6634 9.85623 76.1867 9.76261 76.9185 8.70075ZM62.778 26.9192C64.2258 26.0187 65.3777 24.7885 66.5275 23.557C65.2894 24.6896 63.7933 25.5392 62.8013 26.9439C61.7443 27.3183 61.0688 28.1767 60.3141 28.9335C61.2731 28.4334 62.0963 27.7635 62.778 26.9192ZM94.725 142.086C93.8847 144.384 93.0799 146.669 91.379 148.562C90.351 149.706 89.5313 151.083 88.8531 152.47C88.6075 152.974 88.1561 153.126 87.899 153.576C87.299 154.627 87.0788 155.814 86.3106 156.835C84.5789 159.136 82.8696 161.447 81.0619 163.695C79.8691 165.178 78.7527 166.736 77.5133 168.184C75.2037 170.882 72.2559 172.691 68.9837 173.98C65.2026 175.468 61.4571 177.084 57.592 178.318C50.3893 180.618 43.0376 181.545 35.4292 180.637C30.8456 180.091 26.3814 179.225 22.4531 176.884C16.1707 173.14 10.9915 168.154 7.33346 161.721C7.19633 161.48 7.02009 161.261 6.85527 161.037C5.36005 159.003 4.01031 156.902 3.32379 154.426C2.98361 153.201 2.48125 152.025 1.92659 150.869C0.281497 147.441 0.597506 143.989 1.92615 140.55C3.26358 137.09 5.49718 134.152 7.99404 131.547C11.3304 128.066 12.8959 124.029 13.3943 119.363C13.858 115.023 13.0963 110.82 12.3232 106.601C11.849 104.013 11.4249 101.413 10.9155 98.8316C10.0936 94.6698 8.17908 90.9604 6.21314 87.2416C3.65387 82.3995 1.6976 77.3021 0.514878 71.9269C-0.474902 67.4289 0.0129556 63.0123 1.54465 58.7714C2.42719 56.3282 3.57432 53.9302 5.43345 51.9511C7.24336 50.0238 9.06953 48.1366 11.228 46.5974C16.4155 42.8971 22.1344 40.3014 28.1979 38.4119C35.1207 36.2548 41.8628 33.7026 47.7777 29.3571C52.1605 26.1372 56.3306 22.6625 60.3359 18.9864C65.7898 13.9808 71.5021 9.3211 78.1036 5.87489C84.5029 2.5346 91.1865 -0.0655468 98.5013 0.0012589C109.511 0.101907 118.938 3.99246 125.616 13.0482C130.554 19.7463 131.354 27.4215 129.741 35.4347C129.449 36.8815 129.155 38.328 128.817 39.7643C127.948 43.454 126.447 46.8466 124.243 49.9583C122.958 51.7718 121.573 53.5083 120.287 55.3023C118.778 57.408 117.097 59.3375 115.36 61.2186C113.348 63.3973 111.565 65.735 109.871 68.1554C109.28 68.9984 108.345 69.51 107.774 70.4171C105.615 73.8475 103.371 77.2269 101.83 81.0001C100.998 83.0368 100.15 85.023 99.986 87.3181C99.8862 88.7254 99.9719 90.1279 99.8493 91.5264C99.6656 93.6212 100.027 95.6855 100.36 97.7328C100.488 98.5186 99.535 99.1546 99.7403 99.2095C100.851 99.5045 100.07 100.129 100.093 100.582C100.106 100.85 99.9359 101.145 99.9965 101.391C101.028 105.575 100.582 109.847 100.67 114.073C100.752 117.996 101.094 121.992 100.034 125.837C99.6467 127.239 99.3645 128.679 98.9562 130.081C98.4661 131.762 97.5621 133.339 97.4113 135.093C97.199 137.564 95.9504 139.634 95.0511 141.843C95.0019 141.964 94.8195 142.032 94.6973 142.128C94.8125 140.812 95.8897 139.832 95.9275 138.479C95.0046 140.441 93.8522 142.299 93.374 144.461C93.8245 143.669 94.2745 142.878 94.725 142.086Z" fill="#F982D0"/>
<path fill-rule="evenodd" clip-rule="evenodd" d="M54.1749 46.127C56.7535 44.6137 58.8442 42.5401 60.8014 40.3144C58.6007 42.2619 56.4375 44.2511 54.1749 46.127ZM69.082 33.1758C68.9963 33.0844 68.9106 32.993 68.8249 32.9016C66.5654 34.966 64.1177 36.8198 62.1557 39.2174L69.082 33.1758ZM17.1376 142.563C15.8134 143.878 15.2104 147.954 16.0793 148.794C16.3272 146.729 16.3338 144.587 17.1376 142.563ZM27.1622 60.4392C24.0553 62.5449 21.2824 64.9605 19.9401 68.6366C22.0766 65.6641 24.4236 62.8829 27.1622 60.4392ZM73.3233 29.4309C78.5179 25.3619 83.9652 21.75 90.0603 19.1868C86.0674 19.7155 74.9917 27.0347 73.3233 29.4309ZM71.4953 126.481C70.2541 128.96 69.485 131.615 68.7541 134.264C68.0065 136.973 66.9974 139.588 66.1219 142.248C65.2943 144.762 64.0984 147.155 63.0646 149.601C67.4887 142.466 69.1387 134.351 71.4953 126.481ZM27.0516 86.6851C27.0722 86.5326 27.0384 86.3128 27.1254 86.242C27.2827 86.1137 27.364 86.3093 27.4687 86.4249C27.7649 86.7501 27.6264 87.2411 28.0325 87.5667C28.7819 88.1667 29.2975 88.9217 29.6706 89.8755C29.9888 90.6886 30.8573 91.2797 31.4493 91.9961C31.5816 92.1557 31.7473 92.4255 31.5768 92.6523C31.2599 93.0729 31.5139 93.2109 31.8629 93.3098C32.2941 93.4311 32.5222 93.7572 32.6685 94.133C33.1968 95.4867 33.9 96.7723 34.0574 98.2636C34.1589 99.2256 34.314 100.375 34.6705 101.077C35.6629 103.033 35.6989 105.095 35.6049 107.054C35.5196 108.828 35.1786 110.645 35.2603 112.422C35.3306 113.957 34.5584 115.208 34.3435 116.638C34.0833 118.369 32.8834 119.88 32.647 121.679C32.5011 122.783 31.3346 123.623 31.3447 124.498C31.3676 126.521 29.5757 127.61 29.2592 129.434C29.1586 130.014 28.9208 130.883 28.4162 131.435C27.3794 132.568 27.0762 134.136 26.0024 135.265C24.6505 136.687 23.9486 138.59 22.507 140C21.6412 140.848 20.9643 141.942 20.2066 142.917C19.5201 143.8 19.5816 145.169 19.3548 146.336C19.0261 148.025 19.9952 149.34 20.4325 150.824C21.4777 154.369 23.6559 157.3 26.2059 159.664C31.186 164.283 37.1507 165.8 43.7824 163.383C44.4558 163.138 45.1282 162.891 45.8073 162.663C49.7892 161.326 53.2293 159.116 56.4245 156.403C60.6061 152.854 62.5861 147.904 64.9027 143.219C65.7132 141.58 66.0283 139.571 66.6401 137.752C67.059 136.506 67.5099 135.263 67.7982 133.984C68.0887 132.695 68.4847 131.442 68.8706 130.186C69.2556 128.931 69.798 127.72 70.103 126.449C70.3746 125.318 70.9306 124.308 71.1649 123.136C71.4778 121.57 71.989 120.01 72.4144 118.446C73.9439 112.824 75.088 107.128 75.7771 101.339C76.159 98.1304 76.4373 94.8916 77.1018 91.7377C79.2484 81.5441 83.9424 72.5376 90.4076 64.4431C93.2974 60.8255 96.363 57.3472 99.3881 53.8395C103.72 48.8172 106.07 42.8394 107.841 36.5685C108.943 32.6695 108.752 28.8177 107.321 25.055C106.505 22.9106 105.289 21.1201 102.724 20.6968C100.336 20.3026 98.0054 20.8682 95.7472 21.2858C94.4045 21.5345 92.9418 22.1731 91.5943 22.8249C88.3616 24.3892 85.0829 25.8663 82.2722 28.143C81.6028 28.6845 80.7695 28.757 80.1006 29.2981C79.2444 29.9903 78.6462 30.9251 77.7123 31.547C77.1761 31.9035 76.5335 31.9382 76.0391 32.3953C72.9036 35.2917 69.3594 37.7279 66.5294 40.975C65.547 42.1028 64.3336 43.0262 63.2633 44.081C59.2449 48.0397 54.5685 51.0016 49.3005 52.9367C42.8423 55.3092 36.8153 58.4895 31.1773 62.3752C29.0214 63.8608 26.7123 65.262 25.1665 67.5206C24.2703 68.8308 23.1179 70.1665 22.9782 71.6674C22.7707 73.8874 22.5448 76.2058 23.3008 78.4174C23.4832 78.951 23.1579 79.6946 23.2713 79.877C23.7086 80.5772 23.9723 81.3692 24.4461 82.0407C25.4693 83.4925 26.8801 84.7332 27.0516 86.6851ZM25.8257 129.498C26.1659 129.37 26.2503 129.03 26.3676 128.758C27.4848 126.171 28.6926 123.616 29.4402 120.887C29.8775 119.29 30.6449 117.769 30.6199 116.057C29.8477 119.085 28.5019 121.908 27.5459 124.868C27.0387 126.439 26.0898 127.851 25.8512 129.522C24.4856 131.323 23.8154 133.486 22.7113 135.423C23.8791 133.516 25.2517 131.713 25.8257 129.498ZM76.5147 122.301C76.4673 122.009 76.513 121.751 76.2224 121.604C76.171 122.053 75.8102 122.481 76.4035 122.874C76.7485 123.102 76.4242 123.473 76.3358 123.749C75.5408 126.231 74.7677 128.724 73.9998 131.21C73.2694 133.577 72.3969 135.912 71.8493 138.336C71.5746 139.553 70.9843 140.647 70.5374 141.796C70.3317 142.323 70.1585 142.826 70.1585 143.4C70.1581 144.565 70.0772 144.596 68.9995 143.983C68.9094 143.932 68.7732 143.963 68.6277 143.953C68.6277 144.083 68.5877 144.211 68.6334 144.288C69.3208 145.429 69.1753 146.797 68.3679 147.897C67.8352 148.622 67.3505 149.355 67.1202 150.308C66.7743 151.742 65.7911 152.871 64.6492 153.814C64.5455 153.9 64.3095 153.86 64.2985 154.06C64.2343 155.242 63.2828 155.809 62.5651 156.513C61.8799 157.185 61.0351 157.676 60.3912 158.414C59.2894 159.678 58.05 160.725 56.5398 161.566C55.8427 161.955 55.1347 162.693 54.3585 162.997C51.4907 164.121 48.6787 165.379 45.774 166.427C40.8659 168.198 36.034 167.678 31.1628 166.496C28.2972 165.801 25.7068 164.519 23.3387 162.758C22.4333 162.085 21.7006 161.265 20.9565 160.433C18.1133 157.256 16.1201 153.619 15.1189 149.484C14.4777 146.836 14.882 144.247 16.2085 141.863C16.5574 141.235 16.826 140.413 18.0034 140.555C18.5163 140.617 19.0253 139.663 19.4231 139.057C22.2355 134.776 24.5223 130.228 26.3638 125.451C28.3025 120.422 29.9942 115.34 30.6473 109.942C31.1215 106.023 30.5919 102.265 29.6369 98.4833C28.8721 95.4546 27.2916 92.9226 25.487 90.4569C24.1346 88.6097 22.9251 86.6587 21.5899 84.7982C21.1165 84.1389 21.7138 83.7183 21.854 82.8705C21.1231 83.8643 21.0031 83.6647 20.6919 82.8472C20.3808 82.0302 19.8103 81.2672 19.3598 80.4752C18.3964 78.7795 17.8457 76.931 17.8272 75.0261C17.8202 74.3036 17.4426 73.7006 17.5402 73.0167C17.6628 72.1544 17.723 71.2701 17.967 70.4407C18.3977 68.974 18.668 67.4278 20.1017 66.4319C20.4977 66.1568 20.2625 65.3032 20.7126 64.8202C22.6385 62.7523 24.4519 60.5486 26.8605 59.0152C32.5908 55.3663 38.5928 52.2585 44.88 49.6399C49.2575 47.8164 53.4368 45.5129 56.887 42.1252C61.9642 37.1402 67.3048 32.448 72.7991 27.9329C78.0077 23.6529 83.5887 19.9799 89.9888 17.6817C92.676 16.717 95.4313 16.1443 98.2789 15.9479C102.343 15.6675 105.387 17.5174 107.749 20.59C112.283 26.4913 113.348 33.1328 111.603 40.2748C110.43 45.0782 108.702 49.6843 106.266 53.9959C105.122 56.0194 104.032 58.0676 102.145 59.6072C101.245 60.3416 100.763 61.5819 100.071 62.5787C97.7049 65.9867 94.7285 68.909 92.3736 72.3376C91.3249 73.864 90.4384 75.4744 89.45 77.0285C87.2929 80.4202 85.8201 84.1636 84.1983 87.8137C82.7751 91.0164 82.2605 94.5163 81.7475 97.9849C81.1955 101.722 80.611 105.456 79.9745 109.179C79.6071 111.33 79.3509 113.551 78.5857 115.566C78.0543 116.966 78.0345 118.458 77.3986 119.815C77.0333 120.593 77.4258 121.66 76.5147 122.301Z" fill="#F982D0"/>
<path fill-rule="evenodd" clip-rule="evenodd" d="M63.2767 106.972C63.3962 107.035 63.5162 107.098 63.6358 107.161C64.0199 106.142 65.1116 105.417 64.6093 104.025C64.1649 105.007 63.721 105.99 63.2767 106.972ZM40.3888 68.6414C37.8963 69.1095 35.3401 71.4564 35.5998 73.0466C36.8067 71.0758 38.556 69.8131 40.3888 68.6414ZM61.5063 53.577C61.4333 53.4799 61.3599 53.3832 61.287 53.287C57.966 56.1653 54.6446 59.0441 51.3241 61.9229C51.3945 62.0051 51.4652 62.0873 51.536 62.1699L61.5063 53.577ZM71.0968 44.418C74.2186 42.1128 77.4271 39.9412 80.8755 38.1348C84.3613 36.3086 87.8875 34.5721 91.4633 32.9525C84.1982 35.9197 77.0192 39.0468 71.0968 44.418ZM48.6636 137.636C49.5035 136.267 50.5227 135.06 51.2079 133.563C52.759 130.176 54.5592 126.902 56.0351 123.473C58.2348 118.364 60.5498 113.309 63.2637 108.447C63.4334 108.142 63.5912 107.836 63.1407 107.394C57.7426 117.286 53.9048 127.8 48.6636 137.636ZM71.4118 49.6952C70.0045 50.3251 69.3088 51.6862 68.2988 52.7248C66.9723 53.4957 66.2388 54.8841 65.0582 55.8154C63.0229 57.421 60.9334 58.9751 59.0295 60.7279C55.0892 64.356 50.7385 67.3192 45.914 69.6513C44.123 70.5175 42.0336 70.7026 40.5032 72.2004C39.567 73.1164 38.4291 73.8569 38.3447 75.2915C38.2195 77.417 38.5517 79.4708 39.5758 81.3814C41.4692 84.9133 44.0197 88.0009 46.2489 91.3055C48.5656 94.7399 50.6357 98.2344 51.1631 102.511C51.6668 106.602 51.3635 110.657 51.1231 114.719C51.0743 115.542 50.5174 116.326 50.4871 117.279C50.4454 118.61 50.4317 120.09 49.5866 121.18C48.0619 123.148 47.5565 125.549 46.5583 127.733C46.2313 128.45 46.4317 129.505 45.8028 130.053C44.9633 130.785 44.7374 131.749 44.3357 132.668C44.1792 133.027 43.9617 133.388 43.6861 133.662C42.7768 134.566 42.2041 135.76 41.5707 136.791C40.3274 138.817 38.9433 140.61 37.1967 142.2C36.6935 142.658 35.8984 142.602 35.596 143.317C35.2936 144.03 34.7377 144.558 34.1549 145.05C33.5598 145.552 33.2556 146.209 33.0192 146.978C33.4556 147.103 33.7373 146.925 34.0248 146.82C35.8329 146.157 37.3791 144.989 39.1253 144.195C42.1883 142.802 44.7721 140.78 46.8181 138.078C48.3489 136.057 49.3879 133.769 50.4836 131.512C52.6548 127.04 54.8611 122.582 56.8974 118.049C58.0379 115.509 59.2242 112.995 60.4864 110.518C62.5838 106.405 64.4526 102.185 66.2739 97.9496C67.7327 94.5575 68.94 91.0603 69.7302 87.4343C70.4194 84.2685 71.621 81.268 72.7958 78.2622C75.0325 72.5388 77.3079 66.8384 80.9954 61.8332C84.3084 57.3361 87.6641 52.8694 90.658 48.1446C92.8925 44.618 94.8321 40.9679 95.784 36.8677C95.886 36.4277 96.2121 35.8506 95.8381 35.5272C95.5212 35.2529 95.0043 35.6133 94.604 35.7715C90.4057 37.4329 86.3644 39.4111 82.4541 41.6742C81.7478 42.0829 81.1202 43.0072 80.0394 42.5554C79.8869 42.4916 79.5683 42.7057 79.661 42.889C79.9884 43.5368 79.3529 43.5289 79.1094 43.6898C77.5716 44.7063 76.0535 45.7475 74.5534 46.8204C73.3799 47.6594 72.5647 48.8553 71.4118 49.6952ZM40.4231 132.586C40.762 132.563 40.8591 132.288 40.9835 132.044C42.5569 128.956 43.7238 125.689 45.1527 122.538C45.8379 121.026 45.6036 119.211 46.7547 117.867C46.9516 117.636 46.8896 117.41 46.6149 117.292C46.2545 117.137 46.0607 117.377 46.0203 117.672C45.8638 118.82 45.3153 119.828 44.9342 120.897C43.9524 123.651 43.1112 126.445 41.7975 129.087C41.2516 130.185 40.6464 131.342 40.4508 132.613C39.4799 133.899 38.7868 135.331 38.2449 136.842C38.9248 135.4 40.2288 134.278 40.4231 132.586ZM83.0655 65.6403C83.4918 66.362 83.3472 66.8152 83.0606 67.514C82.3623 69.218 80.936 70.5567 80.6666 72.4576C80.5708 73.1362 80.0438 73.6487 79.7212 74.2196C78.8998 75.6726 78.742 77.3634 78.0032 78.7791C77.3022 80.1222 77.0015 81.5933 76.2869 82.9065C75.9072 83.6036 76.0408 84.4717 75.5463 85.1476C75.2127 85.603 74.3882 88.4374 74.2924 88.9828C74.052 90.3567 73.7724 91.724 73.4951 93.0914C73.4477 93.326 73.3422 93.5673 73.0226 93.5168C72.693 93.4649 72.5335 93.6148 72.66 93.9075C73.1338 95.0045 72.5682 95.9873 72.1467 96.8487C70.9209 99.3522 69.8564 101.926 68.78 104.488C68.5669 104.996 67.5767 104.858 67.9296 105.871C68.1076 106.382 67.5323 107.267 67.1341 107.928C66.7464 108.574 66.4858 109.293 66.1346 109.962C63.5481 114.893 61.1712 119.922 58.9192 125.016C57.6701 127.841 56.1792 130.558 54.8633 133.355C54.5311 134.062 54.3135 134.855 54.0902 135.611C53.885 136.305 53.5839 137.301 52.7357 137.738C52.5783 137.819 52.4803 137.89 52.4289 138.052C51.3916 141.318 48.6051 143.026 46.1201 144.94C44.341 146.31 42.1711 147.119 40.1525 148.065C38.9034 148.651 37.7545 149.583 36.2993 149.788C34.8405 149.995 33.3915 150.258 31.9125 150.288C30.4779 150.317 29.1515 149.981 27.9635 149.157C27.3411 148.725 27.2466 148.177 27.5183 147.484C28.1912 145.765 29.206 144.326 30.7689 143.304C31.3675 142.912 32.0074 142.572 32.4061 141.933C32.6904 141.476 33.1721 142.051 33.7004 141.531C35.5697 139.693 36.7339 137.457 37.9329 135.21C40.4162 130.555 42.2648 125.633 44.0448 120.684C44.8148 118.543 45.2156 116.31 45.5659 114.065C45.7874 112.647 45.9364 111.229 46.0314 109.8C46.0749 109.137 46.3417 108.592 47.1552 108.996C47.6404 109.237 47.7899 108.884 48.0175 108.634C48.1793 108.457 48.1463 108.254 47.9907 108.104C47.7068 107.833 47.4602 108.116 47.2383 108.224C46.3276 108.667 46.03 108.403 46.0762 107.407C46.2045 104.662 46.274 101.917 45.5611 99.2195C45.2064 97.875 44.7084 96.585 44.0593 95.3667C42.1619 91.8036 39.7112 88.5921 37.544 85.1995C35.9586 82.7162 34.3281 80.2334 33.9949 77.2026C33.9171 76.4972 33.3572 75.6375 34.3329 75.0648C34.387 75.0336 34.4344 74.9334 34.43 74.8692C34.241 72.0968 34.3267 72.0273 36.2109 70.0842C37.4336 68.8233 38.9249 67.946 40.4443 67.2476C46.0349 64.6769 50.746 60.9367 55.3578 56.9341C60.9717 52.0612 66.0863 46.6244 71.9186 42.0276C78.3082 36.9925 85.6168 33.5424 93.3747 31.1589C97.4696 29.901 100.504 32.957 99.6109 37.2066C98.7196 41.4496 97.1105 45.4211 94.9732 49.1995C92.5194 53.5366 89.7078 57.6456 86.9872 61.8087C86.241 62.951 85.6081 64.19 84.6978 65.2439C84.2258 65.7902 83.8755 66.2702 83.0655 65.6403Z" fill="#F982D0"/>
<path fill-rule="evenodd" clip-rule="evenodd" d="M71.4114 49.6953C70.706 51.0459 69.5958 51.9821 68.2983 52.7249C69.3083 51.6863 70.0041 50.3251 71.4114 49.6953Z" fill="#F982D0"/>
</svg>
