<svg width="162" height="34" viewBox="0 0 162 34" fill="none" xmlns="http://www.w3.org/2000/svg">
<path fill-rule="evenodd" clip-rule="evenodd" d="M17.3035 0.639892C8.44225 0.639892 1.25879 7.82336 1.25879 16.6846L1.25879 17.1379C1.25879 25.9831 8.41728 33.1599 17.2625 33.1826L148.655 33.5184C150.899 33.5184 152.961 32.8938 154.582 31.8504C156.356 33.0999 158.624 33.6174 161.386 33.4028C161.421 33.4001 161.453 33.384 161.471 33.3597C161.496 33.3259 161.49 33.2843 161.459 33.2562L161.432 33.238L161.232 33.1416C159.923 32.4986 159.066 31.8324 158.663 31.1432C158.232 30.407 158.044 28.8042 158.098 26.3347C158.106 26.2121 158.11 26.089 158.11 25.9652L158.11 16.6846C158.11 7.82336 150.926 0.639893 142.065 0.639892L17.3035 0.639892Z" fill="#F982D1"/>
<path d="M148.655 33.7412L148.655 33.7412L17.2619 33.4054C8.29387 33.3825 1.03595 26.106 1.03595 17.1379L1.03595 16.6846C1.03595 7.70028 8.31917 0.417049 17.3035 0.417049L142.065 0.417049C151.05 0.417049 158.333 7.70029 158.333 16.6846L158.333 25.9652C158.333 26.0919 158.329 26.2182 158.321 26.3441C158.294 27.5713 158.328 28.5766 158.42 29.3629C158.513 30.1562 158.664 30.7034 158.855 31.0306C159.225 31.6619 160.032 32.3039 161.33 32.9413C161.33 32.9414 161.33 32.9415 161.33 32.9416L161.529 33.0372L161.542 33.0439L161.555 33.0524L161.583 33.0706L161.597 33.0803L161.61 33.0922C161.716 33.1898 161.749 33.3582 161.65 33.4923L161.65 33.4924C161.587 33.5774 161.491 33.6182 161.403 33.625C158.667 33.8376 156.385 33.3424 154.577 32.1175C152.938 33.137 150.883 33.7412 148.655 33.7412ZM161.459 33.2562L161.432 33.238L148.655 33.5184C150.899 33.5184 152.961 32.8938 154.582 31.8504C156.333 33.0835 158.565 33.6036 161.277 33.4109L161.321 33.432L161.336 33.4417L161.36 33.4048C161.369 33.4041 161.377 33.4035 161.386 33.4028C161.421 33.4001 161.453 33.384 161.471 33.3597C161.496 33.3259 161.49 33.2843 161.459 33.2562ZM161.298 33.4094C161.305 33.4089 161.312 33.4084 161.319 33.4079L161.317 33.4108L161.308 33.4201C161.305 33.4169 161.301 33.4133 161.298 33.4094Z" stroke="#872E5E" stroke-opacity="0.08" stroke-width="0.445686"/>
</svg>
