<svg width="185" height="40" viewBox="0 0 185 40" fill="none" xmlns="http://www.w3.org/2000/svg">
<rect x="0.291992" y="0.0942383" width="39.8115" height="39.8115" rx="19.9058" fill="#32A9DF"/>
<g clip-path="url(#clip0_113_3906)">
<g clip-path="url(#clip1_113_3906)">
<g clip-path="url(#clip2_113_3906)">
<path opacity="0.21" d="M25.4991 31.2036C26.1532 31.2512 26.8265 30.9086 27.1559 30.3425C27.4902 29.7763 27.4663 29.0246 27.0939 28.4822C26.4731 27.5878 24.7972 27.4688 24.1525 28.4251C23.4268 29.5051 24.2242 31.1084 25.4991 31.2036Z" stroke="#27131F" stroke-width="1.22405" stroke-miterlimit="10"/>
<path opacity="0.21" d="M16.4005 11.916C15.8323 11.916 15.2689 11.9445 14.715 12.0539C14.2518 12.1443 13.8173 12.3109 13.5547 12.7295C13.4448 12.9056 13.3684 13.1196 13.335 13.3242C13.2109 14.0997 13.4401 14.7753 13.9701 15.3605C14.3521 15.7792 14.7961 16.1075 15.3118 16.3406C15.4503 16.4024 15.5792 16.4738 15.7177 16.5404C15.8943 16.6261 15.9803 16.7783 15.9469 16.9734C15.8943 17.2493 15.8323 17.5253 15.6747 17.7679C15.436 18.1342 15.0969 18.3721 14.6958 18.5339C14.2279 18.7194 13.7743 18.7147 13.3064 18.5148C12.8575 18.3198 12.4278 18.0914 12.0362 17.7964C11.5349 17.4158 11.1147 16.9591 10.8043 16.4072C10.3889 15.6793 10.2122 14.8895 10.2457 14.0569C10.2648 13.5907 10.3555 13.1387 10.4987 12.6962C10.6229 12.3156 10.79 11.9635 10.9953 11.621C11.4776 10.8074 12.1317 10.1699 12.9435 9.69413C13.6979 9.25642 14.5049 9.0233 15.3691 9.01378C16.6345 9.00427 17.8998 9.00427 19.1651 9.01378C19.9005 9.01854 20.6358 9.0566 21.3711 9.08039C22.0969 9.10418 22.8275 9.13748 23.5532 9.14699C24.8234 9.16127 26.0935 9.17554 27.3588 9.16127C27.9318 9.15175 28.5096 9.08039 29.0826 9.0233C29.2497 9.00902 29.412 8.96145 29.5744 8.92814C29.8656 8.87105 30.0089 8.93766 30.133 9.19933C30.4721 9.90347 30.4147 10.5933 30.028 11.2546C29.6508 11.8969 29.073 12.2918 28.395 12.5582C27.7933 12.7961 27.1631 12.8627 26.528 12.9056C25.7783 12.9579 25.0335 12.9103 24.2886 12.8199C24.0307 12.7866 23.9782 12.8437 23.9543 13.1006C23.9066 13.5716 23.8445 14.0426 23.792 14.5184C23.7347 14.9846 23.6822 15.4557 23.6297 15.9219C23.6153 16.0361 23.6153 16.1503 23.5914 16.2645C23.5676 16.3834 23.6153 16.4167 23.7251 16.431C24.0307 16.4738 24.3363 16.4548 24.6419 16.4262C25.2865 16.3691 25.8977 16.1883 26.5041 15.9838C26.7047 15.9172 26.9052 15.8505 27.1105 15.8077C27.1822 15.7935 27.2824 15.8363 27.3445 15.8839C27.6596 16.136 27.7933 16.4738 27.8077 16.8687C27.8268 17.3825 27.7313 17.863 27.44 18.296C27.2251 18.6195 26.9339 18.8622 26.5901 19.043C25.9407 19.3807 25.2388 19.4997 24.513 19.4997C24.2313 19.4997 23.9496 19.4854 23.6678 19.4759C23.4816 19.4711 23.4577 19.4949 23.4434 19.6805C23.4195 19.9564 23.4005 20.2324 23.367 20.5083C23.2668 21.4075 23.1712 22.3019 23.0519 23.2012C22.9516 23.9814 22.7988 24.7569 22.5696 25.5134C22.455 25.8892 22.3452 26.2651 22.2067 26.6314C22.0014 27.1881 21.7197 27.7067 21.395 28.2014C20.9414 28.8913 20.3875 29.4955 19.7238 29.9951C19.0649 30.4851 18.3439 30.8562 17.5274 31.0132C16.9973 31.1132 16.4625 31.1322 15.9373 31.0132C15.1352 30.8229 14.4428 30.4376 13.951 29.7525C13.6788 29.3719 13.4878 28.9532 13.3732 28.4964C13.1822 27.74 13.1822 26.9835 13.3398 26.2223C13.4783 25.5562 13.7218 24.9282 14.0465 24.324C14.3998 23.6674 14.8295 23.0679 15.3118 22.5018C15.7845 21.9451 16.3002 21.4265 16.8636 20.9603C17.3602 20.5559 17.8712 20.1658 18.3773 19.7661C18.5922 19.5996 18.807 19.4331 19.0171 19.257C19.1269 19.1667 19.1222 19.1476 19.0267 19.043C18.8882 18.8907 18.7402 18.748 18.616 18.5815C18.3343 18.2056 18.2149 17.5253 18.5014 17.0923C18.6781 16.8211 18.9264 16.6356 19.2272 16.5262C19.3036 16.4976 19.38 16.4786 19.4564 16.4595C19.6761 16.4024 19.7477 16.3263 19.7716 16.1027C19.8384 15.4652 19.9769 14.8419 20.1678 14.233C20.3159 13.7572 20.4973 13.2909 20.6644 12.8247C20.7026 12.7152 20.7552 12.6058 20.7981 12.4964C20.8268 12.4203 20.8125 12.368 20.717 12.3537C20.5976 12.3394 20.483 12.3204 20.3636 12.3061C19.7477 12.2252 19.1365 12.1301 18.5205 12.0682C17.8186 11.9921 17.1119 11.9445 16.4053 11.8826C16.4053 11.8922 16.4053 11.9065 16.4005 11.916ZM19.3179 21.9309C19.3036 21.9214 19.2845 21.9166 19.2702 21.9071C19.1174 22.0498 18.9598 22.183 18.8166 22.3353C18.3104 22.8824 17.8473 23.4628 17.4271 24.0813C16.983 24.7331 16.5867 25.4182 16.3098 26.1604C16.1665 26.541 16.0519 26.9312 16.0806 27.3403C16.1188 27.8446 16.3384 28.1539 16.8827 28.3014C17.1119 28.3632 17.3268 28.2871 17.513 28.1586C17.8329 27.9398 18.0287 27.6163 18.1958 27.2737C18.4012 26.8503 18.5635 26.4126 18.6686 25.9558C18.8166 25.3041 18.9646 24.6522 19.0744 23.9909C19.1747 23.401 19.2225 22.8062 19.2941 22.2115C19.3036 22.1211 19.3084 22.026 19.3179 21.9309Z" stroke="#27131F" stroke-width="1.22405" stroke-miterlimit="10"/>
<path d="M15.796 11.3596C15.2278 11.3596 14.6643 11.3881 14.1105 11.4975C13.6473 11.5879 13.2128 11.7545 12.9502 12.1731C12.8403 12.3492 12.7639 12.5632 12.7305 12.7678C12.6064 13.5433 12.8356 14.2189 13.3656 14.8041C13.7476 15.2228 14.1916 15.5511 14.7073 15.7842C14.8458 15.846 14.9747 15.9174 15.1132 15.984C15.2899 16.0697 15.3758 16.2219 15.3424 16.417C15.2899 16.6929 15.2278 16.9689 15.0702 17.2115C14.8315 17.5778 14.4925 17.8157 14.0914 17.9775C13.6234 18.163 13.1698 18.1583 12.7019 17.9584C12.253 17.7634 11.8233 17.535 11.4318 17.24C10.9304 16.8594 10.5102 16.4027 10.1998 15.8508C9.78443 15.1229 9.60776 14.3331 9.64118 13.5005C9.66028 13.0343 9.751 12.5823 9.89425 12.1398C10.0184 11.7592 10.1855 11.4071 10.3908 11.0646C10.8731 10.251 11.5273 9.6135 12.339 9.13773C13.0934 8.70003 13.9004 8.46214 14.7646 8.45738C16.03 8.44787 17.2953 8.44787 18.5607 8.45738C19.296 8.46214 20.0313 8.5002 20.7666 8.52399C21.4924 8.54778 22.223 8.58108 22.9488 8.5906C24.2189 8.60487 25.489 8.61915 26.7543 8.60487C27.3273 8.59536 27.9051 8.52399 28.4781 8.4669C28.6452 8.45263 28.8075 8.40505 28.9699 8.37175C29.2611 8.31465 29.4044 8.38126 29.5285 8.64293C29.8675 9.34707 29.8103 10.0369 29.4235 10.6982C29.0463 11.3405 28.4685 11.7354 27.7905 12.0019C27.1889 12.2397 26.5586 12.3063 25.9235 12.3492C25.1738 12.4015 24.429 12.3539 23.6841 12.2635C23.4262 12.2302 23.3737 12.2873 23.3499 12.5442C23.3021 13.0152 23.24 13.4862 23.1875 13.962C23.1302 14.4283 23.0777 14.8993 23.0251 15.3655C23.0108 15.4797 23.0108 15.5939 22.987 15.7081C22.9631 15.827 23.0108 15.8603 23.1207 15.8746C23.4262 15.9174 23.7319 15.8984 24.0374 15.8698C24.6821 15.8127 25.2932 15.6319 25.8996 15.4274C26.1002 15.3608 26.3007 15.2942 26.506 15.2513C26.5777 15.2371 26.6779 15.2799 26.74 15.3275C27.0552 15.5796 27.1889 15.9174 27.2032 16.3123C27.2223 16.8261 27.1268 17.3067 26.8355 17.7396C26.6206 18.0631 26.3294 18.3058 25.9856 18.4866C25.3362 18.8243 24.6343 18.9433 23.9085 18.9433C23.6268 18.9433 23.3451 18.929 23.0634 18.9195C22.8771 18.9147 22.8533 18.9385 22.8389 19.1241C22.8151 19.4 22.796 19.676 22.7625 19.9519C22.6623 20.8511 22.5668 21.7455 22.4474 22.6448C22.3471 23.425 22.1943 24.2005 21.9651 24.957C21.8505 25.3328 21.7407 25.7087 21.6022 26.075C21.3969 26.6317 21.1152 27.1503 20.7905 27.6451C20.3369 28.3349 19.783 28.9391 19.1193 29.4387C18.4604 29.9287 17.7394 30.2998 16.9229 30.4568C16.3929 30.5568 15.8581 30.5758 15.3328 30.4568C14.5306 30.2665 13.8383 29.8812 13.3465 29.1961C13.0743 28.8155 12.8833 28.3968 12.7687 27.94C12.5777 27.1836 12.5777 26.4271 12.7353 25.6659C12.8738 24.9998 13.1173 24.3718 13.442 23.7676C13.7953 23.111 14.2251 22.5116 14.7073 21.9454C15.18 21.3887 15.6957 20.8701 16.2592 20.4039C16.7558 19.9995 17.2666 19.6094 17.7728 19.2097C17.9877 19.0432 18.2025 18.8767 18.4126 18.7006C18.5225 18.6102 18.5177 18.5912 18.4222 18.4866C18.2837 18.3343 18.1357 18.1916 18.0115 18.0251C17.7298 17.6492 17.6105 16.9689 17.8969 16.5359C18.0736 16.2647 18.3219 16.0792 18.6227 15.9698C18.6991 15.9412 18.7755 15.9222 18.8519 15.9031C19.0715 15.846 19.1432 15.7699 19.1671 15.5463C19.2339 14.9088 19.3724 14.2855 19.5634 13.6766C19.7114 13.2008 19.8929 12.7345 20.06 12.2683C20.0982 12.1588 20.1507 12.0494 20.1937 11.94C20.2223 11.8639 20.208 11.8116 20.1125 11.7973C19.9931 11.783 19.8785 11.764 19.7592 11.7497C19.1432 11.6688 18.532 11.5737 17.916 11.5118C17.2141 11.4357 16.5075 11.3881 15.8008 11.3262C15.8008 11.3358 15.796 11.3453 15.796 11.3596ZM18.7087 21.3745C18.6944 21.365 18.6753 21.3602 18.6609 21.3507C18.5081 21.4934 18.3505 21.6266 18.2073 21.7789C17.7012 22.326 17.238 22.9064 16.8178 23.5249C16.3738 24.1767 15.9774 24.8618 15.7005 25.604C15.5573 25.9846 15.4427 26.3748 15.4713 26.7839C15.5095 27.2882 15.7291 27.5975 16.2735 27.745C16.5027 27.8068 16.7175 27.7307 16.9038 27.6022C17.2237 27.3834 17.4194 27.0599 17.5866 26.7173C17.7919 26.2939 17.9542 25.8562 18.0593 25.3994C18.2073 24.7477 18.3553 24.0958 18.4651 23.4345C18.5654 22.8446 18.6132 22.2499 18.6848 21.6551C18.6991 21.5648 18.7039 21.4696 18.7087 21.3745Z" fill="white"/>
<path d="M25.1167 30.8801C25.7709 30.9277 26.4442 30.5851 26.7736 30.0189C27.1079 29.4528 27.084 28.7011 26.7116 28.1587C26.0908 27.2643 24.4148 27.1453 23.7702 28.1016C23.0444 29.1769 23.8419 30.785 25.1167 30.8801Z" fill="white"/>
</g>
</g>
</g>
<path d="M55.4866 21.4543V17.8945H62.5044V21.4543H55.4866ZM56.58 28.0143H52.8677V10.6988H63.7757V14.2839H55.2832L56.58 12.7329V28.0143Z" fill="#27131F"/>
<path d="M68.6753 28.1415C68.0481 28.1415 67.4718 28.0143 66.9463 27.7601C66.4208 27.5058 65.997 27.1159 65.675 26.5905C65.3529 26.048 65.1919 25.3276 65.1919 24.4292V10.6988H68.8787V23.107C68.8787 23.7342 68.9889 24.141 69.2093 24.3275C69.4466 24.497 69.7432 24.5817 70.0992 24.5817V28.0143C69.9297 28.0483 69.7009 28.0737 69.4127 28.0906C69.1415 28.1245 68.8957 28.1415 68.6753 28.1415Z" fill="#27131F"/>
<path d="M75.2998 28.0143H71.5875V15.5807H75.2998V28.0143ZM71.2569 11.665C71.2569 11.0039 71.4519 10.4699 71.8417 10.0631C72.2486 9.65629 72.7825 9.45288 73.4436 9.45288C74.1047 9.45288 74.6302 9.65629 75.0201 10.0631C75.4269 10.4699 75.6303 11.0039 75.6303 11.665C75.6303 12.3091 75.4269 12.8346 75.0201 13.2415C74.6302 13.6313 74.1047 13.8263 73.4436 13.8263C72.7825 13.8263 72.2486 13.6313 71.8417 13.2415C71.4519 12.8346 71.2569 12.3091 71.2569 11.665Z" fill="#27131F"/>
<path d="M80.2301 15.5807L81.1964 19.0133V28.0143H77.4841V15.5807H80.2301ZM80.3827 21.0729L79.747 20.7932V17.92L79.9759 17.6148C80.1793 17.3267 80.4675 16.9961 80.8404 16.6232C81.2303 16.2503 81.6795 15.9367 82.188 15.6824C82.7135 15.4112 83.2474 15.2756 83.7899 15.2756C84.0611 15.2756 84.3069 15.2925 84.5273 15.3264C84.7476 15.3603 84.9256 15.4197 85.0612 15.5044V18.8862H84.2221C83.1373 18.8862 82.2812 19.0642 81.654 19.4201C81.0438 19.7592 80.62 20.3101 80.3827 21.0729Z" fill="#27131F"/>
<path d="M91.9796 28.2178C90.6066 28.2178 89.5217 27.8787 88.725 27.2007C87.9453 26.5226 87.5554 25.4124 87.5554 23.8698V15.7333L87.5046 15.5807L88.2674 12.5804H91.2677V23.0561C91.2677 23.6325 91.4033 24.0478 91.6745 24.3021C91.9457 24.5394 92.3017 24.658 92.7425 24.658C92.9967 24.658 93.234 24.6411 93.4544 24.6072C93.6917 24.5563 93.8867 24.5055 94.0392 24.4546V27.9381C93.751 28.0228 93.4374 28.0906 93.0984 28.1415C92.7764 28.1923 92.4034 28.2178 91.9796 28.2178ZM85.623 18.9879V15.5807H94.0392V18.9879H85.623Z" fill="#27131F"/>
<path d="M100.204 28.3195C99.2888 28.3195 98.543 28.1839 97.9666 27.9126C97.4072 27.6414 96.9665 27.2685 96.6445 26.7939C96.3393 26.3023 96.1274 25.7514 96.0088 25.1411C95.9071 24.5139 95.8562 23.8529 95.8562 23.1579V15.5807H99.5685V22.9544C99.5685 23.6494 99.7126 24.1156 100.001 24.3529C100.289 24.5733 100.645 24.6835 101.069 24.6835C101.442 24.6835 101.806 24.6241 102.162 24.5055C102.518 24.3699 102.866 24.1834 103.205 23.9461C103.544 23.6918 103.849 23.3867 104.12 23.0307L104.756 24.9123H103.713V15.5807H107.451V28.0143H104.679L103.916 25.548L105.188 25.6497C104.781 26.1243 104.306 26.5735 103.764 26.9973C103.238 27.4041 102.679 27.7262 102.086 27.9635C101.492 28.2008 100.865 28.3195 100.204 28.3195Z" fill="#27131F"/>
<path d="M115.879 28.0143V10.6988H121.931C123.727 10.6988 125.27 11.0463 126.558 11.7413C127.864 12.4193 128.864 13.411 129.559 14.7162C130.271 16.0045 130.627 17.5555 130.627 19.3693C130.627 21.2 130.271 22.7595 129.559 24.0478C128.864 25.3361 127.864 26.3192 126.558 26.9973C125.253 27.6753 123.702 28.0143 121.905 28.0143H115.879ZM119.591 25.8277L118.117 24.4292H121.651C122.685 24.4292 123.583 24.2597 124.346 23.9207C125.126 23.5647 125.728 23.0138 126.151 22.2679C126.592 21.5221 126.813 20.5559 126.813 19.3693C126.813 18.1997 126.601 17.2419 126.177 16.4961C125.753 15.7502 125.151 15.1993 124.372 14.8433C123.609 14.4704 122.71 14.2839 121.676 14.2839H117.939L119.591 13.1906V25.8277Z" fill="#27131F"/>
<path d="M135.617 28.3449C134.719 28.3449 133.922 28.1754 133.227 27.8364C132.549 27.4804 132.024 26.9888 131.651 26.3616C131.278 25.7344 131.091 25.0055 131.091 24.1749C131.091 23.2935 131.295 22.5476 131.701 21.9374C132.108 21.3102 132.651 20.8271 133.329 20.4881C134.024 20.149 134.795 19.9795 135.643 19.9795C136.88 19.9795 137.88 20.2592 138.643 20.8186C139.406 21.378 139.914 22.1832 140.169 23.2341L138.567 22.9544V20.0558C138.567 19.5981 138.406 19.1998 138.084 18.8607C137.761 18.5217 137.244 18.3522 136.533 18.3522C136.075 18.3522 135.549 18.4115 134.956 18.5302C134.363 18.6319 133.753 18.8353 133.125 19.1404L132.032 16.4961C132.778 16.1231 133.575 15.8265 134.422 15.6061C135.287 15.3858 136.168 15.2756 137.066 15.2756C138.219 15.2756 139.185 15.479 139.965 15.8858C140.745 16.2927 141.321 16.869 141.694 17.6148C142.084 18.3607 142.279 19.2252 142.279 20.2084V28.0143H139.253L138.516 25.5988L140.169 25.0903C139.897 26.1073 139.38 26.904 138.618 27.4804C137.855 28.0567 136.855 28.3449 135.617 28.3449ZM136.761 25.7005C137.321 25.7005 137.761 25.5564 138.084 25.2683C138.423 24.9801 138.592 24.6157 138.592 24.1749C138.592 23.7003 138.423 23.3274 138.084 23.0561C137.761 22.7849 137.321 22.6493 136.761 22.6493C136.202 22.6493 135.761 22.7849 135.439 23.0561C135.117 23.3274 134.956 23.7003 134.956 24.1749C134.956 24.6157 135.117 24.9801 135.439 25.2683C135.761 25.5564 136.202 25.7005 136.761 25.7005Z" fill="#27131F"/>
<path d="M149.652 28.2178C148.278 28.2178 147.194 27.8787 146.397 27.2007C145.617 26.5226 145.227 25.4124 145.227 23.8698V15.7333L145.176 15.5807L145.939 12.5804H148.94V23.0561C148.94 23.6325 149.075 24.0478 149.346 24.3021C149.618 24.5394 149.974 24.658 150.414 24.658C150.669 24.658 150.906 24.6411 151.126 24.6072C151.364 24.5563 151.559 24.5055 151.711 24.4546V27.9381C151.423 28.0228 151.109 28.0906 150.77 28.1415C150.448 28.1923 150.075 28.2178 149.652 28.2178ZM143.295 18.9879V15.5807H151.711V18.9879H143.295Z" fill="#27131F"/>
<path d="M157.444 28.0143H153.731V15.5807H157.444V28.0143ZM153.401 11.665C153.401 11.0039 153.596 10.4699 153.986 10.0631C154.393 9.65629 154.927 9.45288 155.588 9.45288C156.249 9.45288 156.774 9.65629 157.164 10.0631C157.571 10.4699 157.774 11.0039 157.774 11.665C157.774 12.3091 157.571 12.8346 157.164 13.2415C156.774 13.6313 156.249 13.8263 155.588 13.8263C154.927 13.8263 154.393 13.6313 153.986 13.2415C153.596 12.8346 153.401 12.3091 153.401 11.665Z" fill="#27131F"/>
<path d="M167.282 15.2756C168.112 15.2756 168.79 15.4197 169.316 15.7078C169.841 15.9791 170.239 16.3605 170.511 16.852C170.799 17.3436 170.985 17.903 171.07 18.5302C171.172 19.1404 171.223 19.7761 171.223 20.4372V28.0143H167.51V20.6406C167.51 19.9287 167.383 19.4625 167.129 19.2421C166.875 19.0048 166.536 18.8862 166.112 18.8862C165.756 18.8862 165.383 18.9625 164.993 19.115C164.62 19.2506 164.256 19.4456 163.9 19.6998C163.544 19.9541 163.23 20.2423 162.959 20.5643L162.298 18.6828H163.34V28.0143H159.628V15.5807H162.374L163.137 18.0471L161.866 17.9454C162.306 17.4538 162.806 17.0046 163.366 16.5978C163.925 16.1909 164.535 15.8689 165.197 15.6316C165.858 15.3942 166.553 15.2756 167.282 15.2756Z" fill="#27131F"/>
<path d="M178.593 33.0997C177.932 33.0997 177.253 32.998 176.558 32.7946C175.88 32.6081 175.253 32.2776 174.677 31.8029C174.101 31.3452 173.617 30.735 173.228 29.9722L173.024 29.5399L175.694 28.1669C176.118 28.828 176.542 29.3026 176.965 29.5908C177.406 29.879 177.965 30.0231 178.643 30.0231C179.423 30.0231 180.059 29.7688 180.55 29.2603C181.042 28.7687 181.288 28.0228 181.288 27.0227V23.6664H181.542V18.7082H181.288L182.229 15.5807H185V26.2345C185 27.6923 184.746 28.9382 184.237 29.9722C183.729 31.0062 182.991 31.786 182.025 32.3115C181.076 32.8369 179.932 33.0997 178.593 33.0997ZM178.11 27.3533C176.991 27.3533 175.999 27.099 175.135 26.5905C174.287 26.0819 173.609 25.37 173.1 24.4546C172.609 23.5393 172.363 22.4968 172.363 21.3271C172.363 20.1406 172.6 19.0981 173.075 18.1997C173.567 17.2843 174.245 16.5723 175.109 16.0638C175.974 15.5383 176.957 15.2756 178.059 15.2756C179.093 15.2756 180 15.5299 180.779 16.0384C181.559 16.5469 182.169 17.2504 182.61 18.1488C183.051 19.0472 183.271 20.1067 183.271 21.3271C183.271 22.5815 183.059 23.6579 182.635 24.5563C182.212 25.4547 181.61 26.1497 180.83 26.6413C180.067 27.1159 179.16 27.3533 178.11 27.3533ZM178.821 24.0986C179.601 24.0986 180.237 23.8359 180.728 23.3104C181.237 22.7849 181.491 22.1238 181.491 21.3271C181.491 20.4965 181.237 19.8185 180.728 19.293C180.237 18.7675 179.601 18.5048 178.821 18.5048C178.042 18.5048 177.398 18.7675 176.889 19.293C176.397 19.8185 176.152 20.4965 176.152 21.3271C176.152 22.1238 176.397 22.7849 176.889 23.3104C177.398 23.8359 178.042 24.0986 178.821 24.0986Z" fill="#27131F"/>
<defs>
<clipPath id="clip0_113_3906">
<rect width="39.8115" height="23.869" fill="white" transform="translate(0.291992 8.04614)"/>
</clipPath>
<clipPath id="clip1_113_3906">
<rect width="39.8115" height="23.869" fill="white" transform="translate(0.291992 8.04614)"/>
</clipPath>
<clipPath id="clip2_113_3906">
<rect width="21.7269" height="23.869" fill="white" transform="translate(9.33252 8.04614)"/>
</clipPath>
</defs>
</svg>
