<svg width="169" height="35" viewBox="0 0 169 35" fill="none" xmlns="http://www.w3.org/2000/svg">
<path fill-rule="evenodd" clip-rule="evenodd" d="M152.468 1.06177C161.329 1.06177 168.513 8.24523 168.513 17.1065L168.513 17.5581C168.513 26.404 161.353 33.5811 152.507 33.6027L14.7642 33.9403C12.4235 33.9403 10.2732 33.3157 8.58203 32.2723C6.73157 33.5218 4.36588 34.0392 1.48516 33.8247C1.44833 33.822 1.41542 33.8059 1.39657 33.7815C1.37046 33.7478 1.37691 33.7061 1.40875 33.678L1.43729 33.6598L1.6457 33.5635C3.01154 32.9204 3.90482 32.2543 4.32555 31.565C4.77493 30.8289 4.97116 29.226 4.91424 26.7565C4.90613 26.6339 4.90224 26.5109 4.90224 26.3871L4.90224 17.1065C4.90224 8.24524 12.0857 1.06177 20.947 1.06177L152.468 1.06177Z" fill="#F982D1"/>
<path d="M14.7642 34.1631L14.7647 34.1631L152.508 33.8256C161.477 33.8036 168.736 26.5268 168.736 17.5581L168.736 17.1065C168.736 8.12216 161.452 0.838924 152.468 0.838924L20.947 0.838924C11.9626 0.838924 4.6794 8.12216 4.6794 17.1065L4.6794 26.3871C4.6794 26.5139 4.68333 26.6403 4.69157 26.7664C4.7197 27.9932 4.68476 28.998 4.58857 29.7837C4.49152 30.5764 4.33466 31.1224 4.13534 31.4489C3.74981 32.0805 2.90668 32.7234 1.55142 33.3616C1.55121 33.3617 1.55099 33.3618 1.55077 33.3619L1.34381 33.4575L1.33015 33.4639L1.31746 33.4719L1.28893 33.4901L1.27431 33.4995L1.26131 33.5109C1.20998 33.5562 1.16994 33.6211 1.1599 33.6993C1.14963 33.7793 1.17309 33.8568 1.22026 33.9178L1.22027 33.9178C1.28541 34.0021 1.38237 34.0405 1.46861 34.0469C4.32379 34.2596 6.703 33.7632 8.58727 32.5362C10.2962 33.5577 12.4404 34.1631 14.7642 34.1631ZM1.40875 33.678L1.43729 33.6598L14.7642 33.9403C12.4235 33.9403 10.2732 33.3157 8.58203 32.2723C6.7551 33.5059 4.42596 34.026 1.5948 33.8325L1.54443 33.8558L1.52858 33.8659L1.50314 33.826C1.49715 33.8256 1.49116 33.8251 1.48516 33.8247C1.44833 33.822 1.41542 33.8059 1.39657 33.7815C1.37046 33.7478 1.37691 33.7061 1.40875 33.678ZM1.57001 33.8308C1.56175 33.8302 1.55349 33.8297 1.54523 33.8291L1.55355 33.8421L1.5562 33.8451C1.5608 33.8411 1.56548 33.8363 1.57001 33.8308ZM1.39653 33.7816L1.39652 33.7816L1.39653 33.7816Z" stroke="#872E5E" stroke-opacity="0.08" stroke-width="0.445686"/>
</svg>
