<svg width="36" height="37" viewBox="0 0 36 37" fill="none" xmlns="http://www.w3.org/2000/svg">
<rect y="5.51611" width="30.5792" height="30.5792" rx="15.2896" fill="url(#paint0_linear_113_4009)"/>
<path d="M9.8457 22.0371L11.8757 27.6557C11.8757 27.6557 12.1295 28.1814 12.4012 28.1814C12.673 28.1814 16.7151 23.9763 16.7151 23.9763L21.21 15.2944L9.91814 20.5867L9.8457 22.0371Z" fill="#C8DAEA"/>
<path d="M12.5371 23.478L12.1474 27.6195C12.1474 27.6195 11.9843 28.8885 13.253 27.6195C14.5218 26.3505 15.7361 25.372 15.7361 25.372" fill="#A9C6D8"/>
<path d="M9.88187 22.2374L5.70617 20.8768C5.70617 20.8768 5.20713 20.6744 5.36782 20.2152C5.4009 20.1206 5.46763 20.04 5.66724 19.9016C6.59247 19.2567 22.7924 13.434 22.7924 13.434C22.7924 13.434 23.2498 13.2798 23.5196 13.3824C23.5863 13.403 23.6463 13.441 23.6936 13.4925C23.7408 13.544 23.7735 13.6071 23.7883 13.6754C23.8175 13.7959 23.8297 13.92 23.8245 14.0439C23.8233 14.1512 23.8103 14.2505 23.8004 14.4064C23.7018 15.9983 20.7492 27.8795 20.7492 27.8795C20.7492 27.8795 20.5725 28.5748 19.9396 28.5986C19.784 28.6036 19.6291 28.5773 19.4839 28.5211C19.3388 28.465 19.2064 28.3802 19.0948 28.2718C17.8527 27.2034 13.5598 24.3184 12.6112 23.6839C12.5898 23.6693 12.5718 23.6503 12.5584 23.6282C12.5449 23.606 12.5364 23.5813 12.5334 23.5555C12.5201 23.4887 12.5928 23.4058 12.5928 23.4058C12.5928 23.4058 20.0679 16.7614 20.2668 16.0639C20.2822 16.0099 20.224 15.9832 20.1459 16.0069C19.6494 16.1895 11.0428 21.6247 10.0929 22.2245C10.0245 22.2452 9.95225 22.2496 9.88187 22.2374Z" fill="white"/>
<circle cx="28.0945" cy="8.12866" r="7.54565" fill="#FF8C04"/>
<path d="M30.1661 9.72037V10.9097H25.6777C25.7263 10.4601 25.8721 10.0348 26.1151 9.63379C26.3582 9.22976 26.8381 8.69511 27.5551 8.02983C28.1322 7.49214 28.4862 7.1276 28.6168 6.93622C28.793 6.67193 28.8811 6.41068 28.8811 6.15247C28.8811 5.86691 28.8036 5.64819 28.6487 5.4963C28.4968 5.34137 28.2857 5.26391 28.0153 5.26391C27.748 5.26391 27.5353 5.34441 27.3774 5.50541C27.2194 5.66642 27.1283 5.93375 27.104 6.3074L25.8281 6.17981C25.904 5.47504 26.1425 4.96924 26.5435 4.66242C26.9445 4.35561 27.4457 4.2022 28.0472 4.2022C28.7064 4.2022 29.2243 4.37991 29.601 4.73533C29.9777 5.09075 30.1661 5.53276 30.1661 6.06133C30.1661 6.36208 30.1114 6.64915 30.002 6.92255C29.8957 7.19292 29.7256 7.47695 29.4917 7.77465C29.3367 7.97211 29.0573 8.25615 28.6532 8.62676C28.2492 8.99737 27.9925 9.24343 27.8832 9.36494C27.7768 9.48646 27.6902 9.60493 27.6234 9.72037H30.1661Z" fill="white"/>
<defs>
<linearGradient id="paint0_linear_113_4009" x1="15.2896" y1="36.0953" x2="15.2896" y2="5.51611" gradientUnits="userSpaceOnUse">
<stop stop-color="#1D93D2"/>
<stop offset="1" stop-color="#38B0E3"/>
</linearGradient>
</defs>
</svg>
